<svg xmlns="http://www.w3.org/2000/svg" style="display:none">
  <symbol id="i-mic" viewBox="0 0 24 24" fill="none" stroke="currentColor" stroke-width="2" stroke-linecap="round" stroke-linejoin="round"><path d="M12 3a3 3 0 0 0-3 3v6a3 3 0 0 0 6 0V6a3 3 0 0 0-3-3ZM5.5 11a6.5 6.5 0 0 0 13 0M12 17.5V21M9 21h6"/></symbol>
  <symbol id="i-keyboard" viewBox="0 0 24 24" fill="none" stroke="currentColor" stroke-width="2" stroke-linecap="round" stroke-linejoin="round"><path d="M3 7a2 2 0 0 1 2-2h14a2 2 0 0 1 2 2v10a2 2 0 0 1-2 2H5a2 2 0 0 1-2-2ZM7 9h.01M11 9h.01M15 9h.01M7 13h.01M17 13h.01M11 13h2M8 16h8"/></symbol>
  <symbol id="i-xp" viewBox="0 0 24 24" fill="none" stroke="currentColor" stroke-width="2" stroke-linecap="round" stroke-linejoin="round"><path d="M13 2 4 14h7l-1 8 9-12h-7l1-8Z"/></symbol>
  <symbol id="i-coin" viewBox="0 0 24 24" fill="none" stroke="currentColor" stroke-width="2" stroke-linecap="round" stroke-linejoin="round"><path d="M3 12a9 9 0 1 0 18 0a9 9 0 1 0-18 0ZM8 12a4 4 0 1 0 8 0a4 4 0 1 0-8 0Z"/></symbol>
  <symbol id="i-streak" viewBox="0 0 24 24" fill="none" stroke="currentColor" stroke-width="2" stroke-linecap="round" stroke-linejoin="round"><path d="M12 22c4 0 7-2.8 7-7 0-3.5-2.2-6-4-8-.4 2-1.4 3.3-2.8 4C12.6 7.6 11 4.5 8.5 2.5 8.5 6 5 8.8 5 14.5 5 19 8 22 12 22ZM12 22c-1.7 0-3-1.3-3-3 0-1.8 1.5-3 3-5 1.5 2 3 3.2 3 5 0 1.7-1.3 3-3 3Z"/></symbol>
  <symbol id="i-chest" viewBox="0 0 24 24" fill="none" stroke="currentColor" stroke-width="2" stroke-linecap="round" stroke-linejoin="round"><path d="M3 10a4 4 0 0 1 4-4h10a4 4 0 0 1 4 4v9a1 1 0 0 1-1 1H4a1 1 0 0 1-1-1ZM3 12h18M10 11h4v3h-4Z"/></symbol>
  <symbol id="i-quest" viewBox="0 0 24 24" fill="none" stroke="currentColor" stroke-width="2" stroke-linecap="round" stroke-linejoin="round"><path d="M5 21V4M5 4h12l-2.5 4.5L17 13H5"/></symbol>
  <symbol id="i-steps" viewBox="0 0 24 24" fill="none" stroke="currentColor" stroke-width="2" stroke-linecap="round" stroke-linejoin="round"><path d="M8 3c1.7 0 3 1.8 3 4.5S9.9 12 8 12 5 9.2 5 7s1.3-4 3-4ZM6 15h4v1.5a2 2 0 0 1-4 0ZM16 7c1.7 0 3 1.8 3 4s-1.1 4.5-3 4.5-3-2.3-3-4.5 1.3-4 3-4ZM14 19h4v.5a2 2 0 0 1-4 0Z"/></symbol>
  <symbol id="i-sleep" viewBox="0 0 24 24" fill="none" stroke="currentColor" stroke-width="2" stroke-linecap="round" stroke-linejoin="round"><path d="M20 14.5A8 8 0 1 1 9.5 4a6.5 6.5 0 0 0 10.5 10.5Z"/></symbol>
  <symbol id="i-water" viewBox="0 0 24 24" fill="none" stroke="currentColor" stroke-width="2" stroke-linecap="round" stroke-linejoin="round"><path d="M12 3s6 6.5 6 11a6 6 0 0 1-12 0c0-4.5 6-11 6-11Z"/></symbol>
  <symbol id="i-workout" viewBox="0 0 24 24" fill="none" stroke="currentColor" stroke-width="2" stroke-linecap="round" stroke-linejoin="round"><path d="M6.5 6.5v11M17.5 6.5v11M3.5 9v6M20.5 9v6M6.5 12h11"/></symbol>
  <symbol id="i-weight" viewBox="0 0 24 24" fill="none" stroke="currentColor" stroke-width="2" stroke-linecap="round" stroke-linejoin="round"><path d="M4 6a2 2 0 0 1 2-2h12a2 2 0 0 1 2 2v12a2 2 0 0 1-2 2H6a2 2 0 0 1-2-2ZM8.5 11a3.5 3.5 0 0 1 7 0ZM12 11l1.5-2"/></symbol>
  <symbol id="i-plate" viewBox="0 0 24 24" fill="none" stroke="currentColor" stroke-width="2" stroke-linecap="round" stroke-linejoin="round"><path d="M3 12a9 9 0 1 0 18 0a9 9 0 1 0-18 0ZM7.5 12a4.5 4.5 0 1 0 9 0a4.5 4.5 0 1 0-9 0Z"/></symbol>
  <symbol id="i-mug" viewBox="0 0 24 24" fill="none" stroke="currentColor" stroke-width="2" stroke-linecap="round" stroke-linejoin="round"><path d="M4 8h12v7a5 5 0 0 1-5 5H9a5 5 0 0 1-5-5ZM16 10h1.5a2.5 2.5 0 0 1 0 5H16M8 3v2M12 3v2"/></symbol>
  <symbol id="i-sandwich" viewBox="0 0 24 24" fill="none" stroke="currentColor" stroke-width="2" stroke-linecap="round" stroke-linejoin="round"><path d="M3 11c0-3.3 4-6 9-6s9 2.7 9 6ZM3 14.5h18M4 17.5h16a1 1 0 0 1 1 1 2 2 0 0 1-2 2H5a2 2 0 0 1-2-2 1 1 0 0 1 1-1Z"/></symbol>
  <symbol id="i-spoon" viewBox="0 0 24 24" fill="none" stroke="currentColor" stroke-width="2" stroke-linecap="round" stroke-linejoin="round"><path d="M15 3c2.5 0 4.5 2 4.5 4.5S17.5 12 15 12s-4.5-2-4.5-4.5S12.5 3 15 3ZM12 11 4 20"/></symbol>
  <symbol id="i-lock" viewBox="0 0 24 24" fill="none" stroke="currentColor" stroke-width="2" stroke-linecap="round" stroke-linejoin="round"><path d="M5 13a2 2 0 0 1 2-2h10a2 2 0 0 1 2 2v6a2 2 0 0 1-2 2H7a2 2 0 0 1-2-2ZM8 11V7a4 4 0 0 1 8 0v4M12 15v2"/></symbol>
  <symbol id="i-gear" viewBox="0 0 24 24" fill="none" stroke="currentColor" stroke-width="2" stroke-linecap="round" stroke-linejoin="round"><path d="M5 12a7 7 0 1 0 14 0a7 7 0 1 0-14 0ZM9 12a3 3 0 1 0 6 0a3 3 0 1 0-6 0ZM19 12h2.5M17 17l1.7 1.7M12 19v2.5M7 17l-1.7 1.7M5 12H2.5M7 7 5.3 5.3M12 5V2.5M17 7l1.7-1.7"/></symbol>
  <symbol id="i-tabHero" viewBox="0 0 24 24" fill="none" stroke="currentColor" stroke-width="2" stroke-linecap="round" stroke-linejoin="round"><path d="M12 3 4 6v5c0 5 3.4 8.7 8 10 4.6-1.3 8-5 8-10V6Z"/></symbol>
  <symbol id="i-tabDiary" viewBox="0 0 24 24" fill="none" stroke="currentColor" stroke-width="2" stroke-linecap="round" stroke-linejoin="round"><path d="M5 5.5A2.5 2.5 0 0 1 7.5 3H19v14H7.5A2.5 2.5 0 0 0 5 19.5ZM5 19.5A1.5 1.5 0 0 0 6.5 21H19M9 7.5h6M9 11h4"/></symbol>
  <symbol id="i-tabProgress" viewBox="0 0 24 24" fill="none" stroke="currentColor" stroke-width="2" stroke-linecap="round" stroke-linejoin="round"><path d="M4 20h16M7 16v-4M12 16V8M17 16V4.5"/></symbol>
  <symbol id="i-tabRewards" viewBox="0 0 24 24" fill="none" stroke="currentColor" stroke-width="2" stroke-linecap="round" stroke-linejoin="round"><path d="M8 4h8v5a4 4 0 0 1-8 0ZM8 6H5.5a3 3 0 0 0 2.5 4M16 6h2.5a3 3 0 0 1-2.5 4M12 13v3.5M8.5 20.5h7M10 16.5h4l.5 4h-5Z"/></symbol>
  <symbol id="i-check" viewBox="0 0 24 24" fill="none" stroke="currentColor" stroke-width="2" stroke-linecap="round" stroke-linejoin="round"><path d="M5 12.5 10 17 19 7"/></symbol>
  <symbol id="i-plus" viewBox="0 0 24 24" fill="none" stroke="currentColor" stroke-width="2" stroke-linecap="round" stroke-linejoin="round"><path d="M12 5v14M5 12h14"/></symbol>
  <symbol id="i-minus" viewBox="0 0 24 24" fill="none" stroke="currentColor" stroke-width="2" stroke-linecap="round" stroke-linejoin="round"><path d="M5 12h14"/></symbol>
  <symbol id="i-chevronLeft" viewBox="0 0 24 24" fill="none" stroke="currentColor" stroke-width="2" stroke-linecap="round" stroke-linejoin="round"><path d="M15 5l-7 7 7 7"/></symbol>
  <symbol id="i-chevronRight" viewBox="0 0 24 24" fill="none" stroke="currentColor" stroke-width="2" stroke-linecap="round" stroke-linejoin="round"><path d="M9 5l7 7-7 7"/></symbol>
  <symbol id="i-close" viewBox="0 0 24 24" fill="none" stroke="currentColor" stroke-width="2" stroke-linecap="round" stroke-linejoin="round"><path d="M6 6l12 12M18 6 6 18"/></symbol>
  <symbol id="i-star" viewBox="0 0 24 24" fill="none" stroke="currentColor" stroke-width="2" stroke-linecap="round" stroke-linejoin="round"><path d="M12 3l2.7 5.6 6.1.9-4.4 4.3 1 6.1L12 17l-5.5 2.9 1-6.1L3.2 9.5l6.1-.9Z"/></symbol>
  <symbol id="i-bell" viewBox="0 0 24 24" fill="none" stroke="currentColor" stroke-width="2" stroke-linecap="round" stroke-linejoin="round"><path d="M6 9a6 6 0 0 1 12 0c0 6 2.5 7.5 2.5 7.5h-17S6 15 6 9ZM10 20a2 2 0 0 0 4 0"/></symbol>
  <symbol id="i-health" viewBox="0 0 24 24" fill="none" stroke="currentColor" stroke-width="2" stroke-linecap="round" stroke-linejoin="round"><path d="M12 20s-8-4.6-8-10.2A4.6 4.6 0 0 1 12 7a4.6 4.6 0 0 1 8 2.8C20 15.4 12 20 12 20Z"/></symbol>
  <symbol id="i-cloudOff" viewBox="0 0 24 24" fill="none" stroke="currentColor" stroke-width="2" stroke-linecap="round" stroke-linejoin="round"><path d="M3 3l18 18M8.5 6.5A5.5 5.5 0 0 1 17 9.5a4 4 0 0 1 3 6M16 19H7a4 4 0 0 1-1.4-7.75"/></symbol>
  <symbol id="i-edit" viewBox="0 0 24 24" fill="none" stroke="currentColor" stroke-width="2" stroke-linecap="round" stroke-linejoin="round"><path d="M4 20h4L19 9l-4-4L4 16Z"/></symbol>
  <symbol id="i-trash" viewBox="0 0 24 24" fill="none" stroke="currentColor" stroke-width="2" stroke-linecap="round" stroke-linejoin="round"><path d="M4 7h16M9 7V4h6v3M6 7l1 13h10l1-13"/></symbol>
  <symbol id="i-download" viewBox="0 0 24 24" fill="none" stroke="currentColor" stroke-width="2" stroke-linecap="round" stroke-linejoin="round"><path d="M12 4v11M7 10l5 5 5-5M5 20h14"/></symbol>
  <symbol id="i-server" viewBox="0 0 24 24" fill="none" stroke="currentColor" stroke-width="2" stroke-linecap="round" stroke-linejoin="round"><path d="M4 5h16v6H4ZM4 13h16v6H4ZM8 8h.01M8 16h.01"/></symbol>
  <symbol id="i-sun" viewBox="0 0 24 24" fill="none" stroke="currentColor" stroke-width="2" stroke-linecap="round" stroke-linejoin="round"><path d="M8 12a4 4 0 1 0 8 0a4 4 0 1 0-8 0ZM12 2v2M12 20v2M4.9 4.9l1.4 1.4M17.7 17.7l1.4 1.4M2 12h2M20 12h2M4.9 19.1l1.4-1.4M17.7 6.3l1.4-1.4"/></symbol>
  <symbol id="i-user" viewBox="0 0 24 24" fill="none" stroke="currentColor" stroke-width="2" stroke-linecap="round" stroke-linejoin="round"><path d="M8 8a4 4 0 1 0 8 0a4 4 0 1 0-8 0ZM4 21a8 8 0 0 1 16 0"/></symbol>
  <symbol id="i-freeze" viewBox="0 0 24 24" fill="none" stroke="currentColor" stroke-width="2" stroke-linecap="round" stroke-linejoin="round"><path d="M12 2v20M3.3 7l17.4 10M3.3 17 20.7 7M9 4l3 2 3-2M9 20l3-2 3 2"/></symbol>
  <symbol id="i-timer" viewBox="0 0 24 24" fill="none" stroke="currentColor" stroke-width="2" stroke-linecap="round" stroke-linejoin="round"><path d="M12 9v4l2.5 2M9 2h6M4 13a8 8 0 1 0 16 0a8 8 0 1 0-16 0Z"/></symbol>
  <symbol id="i-shirt" viewBox="0 0 24 24" fill="none" stroke="currentColor" stroke-width="2" stroke-linecap="round" stroke-linejoin="round"><path d="M8 3 3 6l2 4 2-1v12h10V9l2 1 2-4-5-3a4 4 0 0 1-8 0Z"/></symbol>
  <symbol id="i-medal" viewBox="0 0 24 24" fill="none" stroke="currentColor" stroke-width="2" stroke-linecap="round" stroke-linejoin="round"><path d="M8 3h8l-2 6h-4ZM6 15a6 6 0 1 0 12 0a6 6 0 1 0-12 0ZM12 13v4"/></symbol>
</svg>
